<?xml version="1.0" encoding="UTF-8"?>
<svg viewBox="0 0 185.91446 336.84531" xmlns="http://www.w3.org/2000/svg" xmlns:xlink="http://www.w3.org/1999/xlink">
 <defs>
  <filter id="g">
   <feGaussianBlur stdDeviation=".78523"/>
  </filter>
  <filter id="j" x="-.13674" y="-.08567" width="1.2735" height="1.1713">
   <feGaussianBlur stdDeviation="6.36205"/>
  </filter>
  <filter id="b" x="-.26397" y="-.03649" width="1.5279" height="1.073">
   <feGaussianBlur stdDeviation=".58922"/>
  </filter>
  <filter id="i" x="-.65814" y="-.09099" width="2.3163" height="1.182">
   <feGaussianBlur stdDeviation="1.46907"/>
  </filter>
  <filter id="h" x="-.32479" y="-.07637" width="1.6496" height="1.1527">
   <feGaussianBlur stdDeviation="2.19909"/>
  </filter>
  <filter id="k" x="-.23453" y="-.27421" width="1.4691" height="1.5484">
   <feGaussianBlur stdDeviation="3.3859"/>
  </filter>
  <linearGradient id="a">
   <stop offset="0"/>
   <stop stop-opacity="0" offset="1"/>
  </linearGradient>
  <linearGradient id="e" x1="364.06" x2="377.38" gradientUnits="userSpaceOnUse">
   <stop stop-color="#fff" offset="0"/>
   <stop stop-color="#fff" stop-opacity="0" offset="1"/>
  </linearGradient>
  <linearGradient id="f" x1="350.52" x2="386.66" gradientUnits="userSpaceOnUse" xlink:href="#a"/>
  <linearGradient id="d" x1="391.06" x2="409.04" gradientUnits="userSpaceOnUse" xlink:href="#a"/>
  <linearGradient id="c" x1="337.93" x2="379.92" gradientUnits="userSpaceOnUse" xlink:href="#a"/>
 </defs>
 <g transform="translate(-275.75 -240.82)">
  <path d="m341.02 486.91 36.335 0.8821 0.75248 9.2201-5.2674 0.3688 3.7625 1.4752 2.2575 12.171-3.01 2.5816 1.505 2.5816 0.75248 13.277-3.7624 7.0073 3.7624 12.171-39.13 1.844 3.7625-11.802-2.2575-6.6385 3.7624-12.908-3.01-7.7449 6.7724-12.171z" fill="url(#c)" opacity=".54651"/>
  <path d="m327.2 482.52 8.9286 3.9286 4.4643 0.53572 2.8571 12.321-3.0357 13.036 1.6071 6.0714-1.7857 12.143 1.7857 6.7857-2.6786 12.679-7.5 1.6072-4.1071-7.1429 4.4643-6.4286 0.17857-6.7857-5-5.1786 5.1786-6.4286-1.4286-6.6071-3.9286-5.3572 6.25-7.8571-1.4286-8.2143z" fill="#e2ffff" filter="url(#h)" opacity=".87597"/>
  <path d="m394.46 486.8 5.5558-1.0102 8.3338-4.0406-5.0508 12.879 4.7358 6.9366-3.5312 6.0625 0.5 4.5625 3.5312 8.0625-3.7812 5.5625 0.0607 6.5678 3.7205 6.0572-4.2812 6.8125-9.7934 0.38859 0.88388-12.122-0.50508-5.177 1.0102-2.0203-3.0305-12.374 1.1364-2.7779 1.5152-3.0305-3.9143-12.753z" fill="url(#d)" opacity=".46512"/>
  <path d="m329.05 483.66c-12.313-6.8569-10.844-22.672-11.413-34.701-1.0509-26.131-17.957-47.275-30.605-68.876-18.111-34.785-13.467-80.979 14.398-109.37 25.307-26.803 67.211-37.465 101.54-22.703 28.144 10.944 50.001 36.364 55.899 66.068 6.1966 27.162-0.34612 56.548-16.798 78.94-12.042 18.732-23.809 39.312-23.267 62.324 1.7829 14.083-6.1813 30.171-24.323 31.067-8.0724 0.8602-18.392 1.1614-26.576 1.0154-7.8803-0.1405-11.281 0.0797-19.769-0.2836-14.026-0.57667-14.101-1.4311-19.089-3.4835z" fill="#ffe600" fill-opacity=".54751" stroke="#999"/>
  <path d="m353.17 446.22c-12.957-17.649-13.847-40.278-17.596-61.047-6.3845-19.77-21.14-37.131-20.999-58.735-2.4422-32.987 31.219-63.721 63.915-56.611 22.056 5.403 40.952 23.425 46.536 45.531 4.356 21.583-5.1938 42.591-14.189 61.662-7.8178 16.513-14.968 33.536-18.238 51.603-1.6517 6.4425-3.7702 12.909-7.6381 18.395" fill="#dedff2" fill-opacity=".91403" filter="url(#j)"/>
  <path d="m330.07 329.09s7.1552 5.3162 13.103 4.9138 10.688-6.5236 15.454-6.6701c3.9724-0.12204 7.8234 5.7015 11.8 5.6765s8.0777-5.8987 12.046-5.6765c4.1231 0.2309 6.8694 5.7207 11.994 6.3546s12.628-3.5882 12.628-3.5882" fill="none" stroke="#fff500" stroke-linecap="round" stroke-linejoin="round"/>
  <path d="m364.56 408.67v-35.632h11.976l0.34675 36.759" fill="url(#e)" stroke="#000" stroke-opacity=".09502"/>
  <path d="m356.1 445.04-5.3229-27.153c0.40444-2.2405 1.9502-4.8542 4.5355-4.8277 3.6404 0.31877 6.7313-2.0827 9.2501-4.3891 3.6369-2.5925 9.4292-2.5756 12.322 1.1273 1.4766 1.6383 3.2126 3.8742 5.7091 3.4594 2.2526-0.59815 5.5513 0.11254 5.4576 2.9753 0.37788 3.6743-0.87036 7.2549-1.665 10.797-1.6286 6.1868-3.3884 12.34-5.3111 18.444" fill="#fff" stroke="#000" stroke-linecap="round" stroke-linejoin="round" stroke-opacity=".31674" stroke-width=".99552"/>
  <path d="m351.02 487.2 1.5215-40.674c4.4312-2.352 9.4996-0.76802 14.235-1.0331 5.7728-0.0844 11.69-0.62997 17.313 1.0204 2.621 1.0049 1.767 4.2004 1.7933 6.3619 0.14926 11.378 0.17537 22.757 0.2734 34.135" fill="url(#f)" opacity=".55039" stroke="#000"/>
  <path d="m328.42 483.66c7.7837 3.9954 17.433 3.3767 26.315 3.9625 3.6088-0.0433 7.2328-3e-3 10.859 0.0313s7.2544 0.0631 10.871-3e-3 7.2227-0.22754 10.804-0.57299 7.2642 0.13504 10.783-0.66803c1.0338 0.16686 2.8167-0.95364 3.8395-1.3235 2.1524-0.77842 3.4102-2.3455 5.5978-3.0215-1.81 2.8216-2.7405 5.9902-6.4014 7.943-15.795 2.0295-28.785 1.8066-43.414 2.6158-7.3978 0.21828-14.628-2e-3 -21.71-2.5995-2.8578-1.6891-4.9444-4.3468-7.5446-6.364z" fill="#808080" opacity=".64729"/>
  <path d="m353.86 413.4-23.796-84.31" fill="none" opacity=".4" stroke="#000"/>
  <path d="m385.16 413.2 21.929-83.102" fill="none" opacity=".4" stroke="#000"/>
  <path d="m334.7 477.69c-6.7266-37.279-18.733-73.754-36.929-107.04-5.6339-17.688-11.453-37.355-4.2853-55.495 7.0769-16.98 14.742-36.25 32.427-44.693 5.3138-3.1766 17.193-8.7058 18.764 0.94476-2.1453 9.7181-16.977 9.3916-21.461 18.41-10.693 10.435-17.217 25.37-16 40.414-1.1296 14.004 0.30365 28.716 7.7384 40.94 7.7798 18.677 17.975 36.439 23.805 55.869 2.7999 13.747 2.2342 28.134 6.9672 41.473 0.99442 6.2485-4.8292 11.956-11.027 9.1793z" fill="#ffffc5"/>
  <path d="m354.7 447.69 4.1071-0.71429 0.35714 38.571-5.3571 0.17857 0.89286-38.036z" fill="#fff" filter="url(#b)" opacity=".5"/>
  <path transform="matrix(1.0552 0 0 .82029 -50.333 76.622)" d="m405 430.58a7.5 9.6429 0 1 1 -15 0 7.5 9.6429 0 1 1 15 0z" fill="#fff" opacity=".31008" stroke="#000"/>
  <path d="m353.63 413.45 2.4436 31.497" fill="none" opacity=".5" stroke="#000" stroke-linecap="round" stroke-linejoin="round"/>
  <path d="m385.27 412.79-4.2009 32.682" fill="none" opacity=".5" stroke="#000" stroke-linecap="round" stroke-linejoin="round"/>
  <path d="m393.53 271.87c35.639 22.145 31.314 63.176 25.756 92.799 28.986 4.778 35.533-52.003 26.607-71.961-6.6378-20.616-34.743-40.901-52.363-20.838z" fill="#ffffc9" opacity=".88372"/>
  <path transform="matrix(1.2617 0 0 1 -134.1 -1.2754)" d="m405.76 448.85 4.1071-0.71429 0.35714 38.571-5.3571 0.17857 0.89286-38.036z" fill="#fff" filter="url(#i)" opacity=".75969"/>
  <path transform="matrix(.41097 0 0 1 197.7 -3.2397)" d="m396.96 450.84 4.1071-0.71429 0.35714 38.571-5.3571 0.17857 0.89286-38.036z" fill="#fff" filter="url(#b)" opacity=".5"/>
  <path d="m331.96 512.94 72.984-5.3033" fill="none" stroke="#808080"/>
  <path d="m332.85 499.83 70.963-5.5558" fill="none" stroke="#808080"/>
  <path d="m332.21 531.38 72.984-5.5558" fill="none" stroke="#808080"/>
  <path d="m332.09 537.94 72.731-5.5558" fill="none" stroke="#808080"/>
  <path d="m331.71 550.82 72.731-5.5558" fill="none" stroke="#808080"/>
  <path d="m332.09 519.38 73.871-6.1255" fill="none" stroke="#808080"/>
  <path d="m328.21 483.36 4.0804 9.3929 0.25 7.3125-5.3125 7.5625 4.3125 5.3125 0.25 6.8125-4.5625 6.0625 4.5625 5.5625v6.5625l-4.0625 6.8125 3.9822 6.0656-0.16967 4.5594 25.25 15.156 22.969 0.25 25-15.406-0.5-10.125 4.2812-6.8125-4.0312-6.0625 0.25-6.5625 3.7812-5.5625-3.5312-8.0625-0.5-4.5625 3.5312-6.0625-4.5312-7.0625 4.8374-12.542" fill="none" stroke="#808080" stroke-linecap="round" stroke-linejoin="round"/>
  <path d="m356.63 570.44 22.936 0.33916-12.127 6.3102z" opacity=".77132" stroke="#404040"/>
  <path transform="translate(-29.779 -2.6516)" d="m405.58 432.89a5.2402 5.3033 0 1 1 -10.48 0 5.2402 5.3033 0 1 1 10.48 0z" fill="#e1e8f1"/>
  <path d="m337.01 497.41c-3.1346-1.9269 0.69485-6.3988 3.5491-4.7405 4.2093 0.44972 8.404-0.44151 12.61-0.58471 16.204-1.1978 32.412-2.3399 48.617-3.5136 0.71257 3.0986-2.7655 5.673-5.6349 5.1444-12.451 0.22389-24.835 1.6978-37.27 2.2574l-21.871 1.4371z" fill="#fff" opacity=".39922"/>
  <path d="m336.6 507.76c-3.1346-1.9269 0.69485-6.3988 3.5491-4.7405 4.2093 0.44972 8.404-0.44151 12.61-0.58471 16.204-1.1978 32.412-2.3399 48.617-3.5136 0.71257 3.0986-2.7655 5.673-5.6349 5.1444-12.451 0.22389-24.835 1.6978-37.27 2.2574l-21.871 1.4371z" fill="#fff" opacity=".58915"/>
  <path d="m337.36 526.7c-3.1346-1.9269 0.69485-6.3988 3.5491-4.7405 4.2093 0.44972 8.404-0.44151 12.61-0.58471 16.204-1.1978 32.412-2.3399 48.617-3.5136 0.71257 3.0986-2.7655 5.673-5.6349 5.1444-12.451 0.22389-24.835 1.6978-37.27 2.2574l-21.871 1.4371z" fill="#fff" opacity=".58527"/>
  <path d="m336.23 544.76c-3.1346-1.9269 0.69485-6.3988 3.5491-4.7405 4.2093 0.44972 8.404-0.44151 12.61-0.58471 16.204-1.1978 32.412-2.3399 48.617-3.5136 0.71257 3.0986-2.7655 5.673-5.6349 5.1444-12.451 0.22389-24.835 1.6978-37.27 2.2574l-21.871 1.4371z" fill="#fff" opacity=".44961"/>
  <path d="m334.49 551.01c22.702-1.5424 45.287-3.3318 67.614-5.1506-0.1508 1.4463-0.82003 4.0882-1.3458 5.2106s-1.2237 2.1142-2.0633 3.0382-1.8208 1.7802-2.9132 2.6312-2.2957 1.6971-3.5797 2.6008c-2.8644 1.7478-7.6275 4.4981-11.497 5.4963-13.739 3.099-22.252 3.0222-32.77-0.88989-5.8425-3.1934-9.4675-7.9616-13.445-12.937z" fill="#8e9499"/>
  <path d="m331.58 550.57 72.226-5.3033 1.2627 10.102-24.875 15.531-23.865-0.88388-24.749-14.016z" fill="#808080" opacity=".50775"/>
  <path d="m338.4 552.97c11.19-0.70874 15.493 4.0274 33.346 3.5098 10.284-0.43038 14.731-1.7883 22.942-3.9775 2.2044-0.78469 5.0768-2.4648 3.0117 0.0721-3.6231 2.7593-6.9116 5.4367-11.505 7.3628-9.269 3.0887-19.26 5.0033-28.973 2.9695-6.1859-1.0168-12.702-2.637-17.213-7.2997-0.70495-0.76214-1.5584-1.5138-1.6087-2.637z" fill="#fff" opacity=".53101"/>
  <path d="m364.56 373.03-8.4348-46.591c0.46952-1.8135 1.609-4.1505 3.7978-4.0631 2.7113 0.2208 3.0574 4.8246 0.42363 5.4631-0.61087 0.14941-1.2276-0.18213-1.7215-0.50722" fill="none" opacity=".24806" stroke="#000"/>
  <path d="m376.53 373.03 8.4348-46.591c-0.46952-1.8135-1.609-4.1505-3.7978-4.0631-2.7113 0.2208-3.0574 4.8246-0.42363 5.4631 0.61087 0.14941 1.2276-0.18213 1.7215-0.50722" fill="none" opacity=".24806" stroke="#000"/>
  <path transform="translate(-32.083 -2.5254)" d="m363.93 329.13a1.7783 2.4852 0 1 1 -3.5566 0 1.7783 2.4852 0 1 1 3.5566 0z" fill="#e1e1e1" opacity=".3" stroke="#000"/>
  <path transform="translate(44.941 -1.5152)" d="m363.93 329.13a1.7783 2.4852 0 1 1 -3.5566 0 1.7783 2.4852 0 1 1 3.5566 0z" fill="#e1e1e1" opacity=".3" stroke="#000"/>
  <path transform="matrix(.85799 .51367 -.51367 .85799 173.47 -176.01)" d="m440 297.72a18.571 13.214 0 1 1 -37.143 0 18.571 13.214 0 1 1 37.143 0z" fill="#fff7d1" filter="url(#k)" opacity=".8876"/>
  <path d="m294.7 285.91c-23.944 35.274-15.873 83.507 8.2431 116.49 4.882 6.7962 20.151 45.456 12.57 18.639-11.409-28.855-29.264-56.043-28.693-88.334-0.64107-15.918 2.0219-31.975 7.8803-46.796z" fill="#78c9cf" opacity=".17829"/>
  <path d="m417.2 419.48c-3.9764 9.7942-0.0729 28.517 2.9942 8.4936 9.6353-29.885 38.387-52.542 37.809-85.773-11.444 19.83-14.974 43.909-31.565 60.8-3.898 4.9546-7.698 10.258-9.2384 16.48z" fill="#78c9cf" filter="url(#g)" opacity=".23256"/>
  <path d="m338.4 250.81c8.391-2.9728 16.55-7.741 25.72-7.4819 5.552 0.27408 11.138-0.0767 16.678 0.5526 5.8855 0.58578 11.835 2.0596 16.815 5.3663 1.9907 1.5642 1.0845 4.2815-1.5774 3.3662-4.0251-0.42048-7.8962-1.9739-11.967-1.9699-2.2501 0.29101-4.5437-0.28592-6.8163-0.33045-12.93-0.94008-25.963-1.0633-38.851 0.49707z" fill="#fff8ff"/>
  <path transform="matrix(.41097 0 0 1 200.82 -3.2397)" d="m396.96 450.84 4.1071-0.71429 0.35714 38.571-5.3571 0.17857 0.89286-38.036z" fill="#fff" filter="url(#b)" opacity=".25969"/>
  <path transform="matrix(.86514 .50153 -.50153 .86514 177.62 -169.62)" d="m425.27 303.08a10.607 6.8185 0 1 1 -21.213 0 10.607 6.8185 0 1 1 21.213 0z" fill="#fff"/>
 </g>
</svg>
